<?xml version="1.0" encoding="UTF-8" standalone="no" ?>
<!DOCTYPE svg PUBLIC "-//W3C//DTD SVG 1.1//EN" "http://www.w3.org/Graphics/SVG/1.1/DTD/svg11.dtd">
<svg xmlns="http://www.w3.org/2000/svg" xmlns:xlink="http://www.w3.org/1999/xlink" version="1.1" width="640.0054" height="512.0054" viewBox="0 0 640.0054 512.0054" xml:space="preserve">
<desc>Created with Fabric.js 4.6.0</desc>
<defs>
</defs>
<g transform="matrix(1 0 0 1 320 256)" id="r9jmowUA8OzBNjI7GSIXH"  >
<path style="stroke: none; stroke-width: 1; stroke-dasharray: none; stroke-linecap: butt; stroke-dashoffset: 0; stroke-linejoin: miter; stroke-miterlimit: 4; fill: rgb(255,255,255); fill-rule: nonzero; opacity: 1;" vector-effect="non-scaling-stroke"  transform=" translate(-320, -256)" d="M 150.7 92.77 C 195 58.27 251.8 32 320 32 C 400.8 32 465.5 68.84 512.6 112.6 C 559.4 156 590.7 207.1 605.5 243.7 C 608.8 251.6 608.8 260.4 605.5 268.3 C 592.1 300.6 565.2 346.1 525.6 386.7 L 630.8 469.1 C 641.2 477.3 643.1 492.4 634.9 502.8 C 626.7 513.2 611.6 515.1 601.2 506.9 L 9.196 42.89 C -1.236 34.71 -3.065 19.63 5.112 9.196 C 13.29 -1.236 28.37 -3.065 38.81 5.112 L 150.7 92.77 z M 223.1 149.5 L 313.4 220.3 C 317.6 211.8 320 202.2 320 191.1 C 320 180.5 316.1 169.7 311.6 160.4 C 314.4 160.1 317.2 159.1 320 159.1 C 373 159.1 416 202.1 416 255.1 C 416 269.7 413.1 282.7 407.1 294.5 L 446.6 324.7 C 457.7 304.3 464 280.9 464 255.1 C 464 176.5 399.5 111.1 320 111.1 C 282.7 111.1 248.6 126.2 223.1 149.5 z M 320 480 C 239.2 480 174.5 443.2 127.4 399.4 C 80.62 355.1 49.34 304 34.46 268.3 C 31.18 260.4 31.18 251.6 34.46 243.7 C 44 220.8 60.29 191.2 83.09 161.5 L 177.4 235.8 C 176.5 242.4 176 249.1 176 255.1 C 176 335.5 240.5 400 320 400 C 338.7 400 356.6 396.4 373 389.9 L 446.2 447.5 C 409.9 467.1 367.8 480 320 480 L 320 480 z" stroke-linecap="round" />
</g>
</svg>