<?xml version="1.0" encoding="UTF-8" standalone="no" ?>
<!DOCTYPE svg PUBLIC "-//W3C//DTD SVG 1.1//EN" "http://www.w3.org/Graphics/SVG/1.1/DTD/svg11.dtd">
<svg xmlns="http://www.w3.org/2000/svg" xmlns:xlink="http://www.w3.org/1999/xlink" version="1.1" width="575.9751" height="448" viewBox="0 0 575.9751 448" xml:space="preserve">
<desc>Created with Fabric.js 4.6.0</desc>
<defs>
</defs>
<g transform="matrix(1 0 0 1 287.99 224)" id="IQLx_NcfwD7XpAUzMQuyl"  >
<path style="stroke: none; stroke-width: 1; stroke-dasharray: none; stroke-linecap: butt; stroke-dashoffset: 0; stroke-linejoin: miter; stroke-miterlimit: 4; fill: rgb(255,255,255); fill-rule: nonzero; opacity: 1;" vector-effect="non-scaling-stroke"  transform=" translate(-287.99, -256)" d="M 279.6 160.4 C 282.4 160.1 285.2 160 288 160 C 341 160 384 202.1 384 256 C 384 309 341 352 288 352 C 234.1 352 192 309 192 256 C 192 253.2 192.1 250.4 192.4 247.6 C 201.7 252.1 212.5 256 224 256 C 259.3 256 288 227.3 288 192 C 288 180.5 284.1 169.7 279.6 160.4 z M 480.6 112.6 C 527.4 156 558.7 207.1 573.5 243.7 C 576.8 251.6 576.8 260.4 573.5 268.3 C 558.7 304 527.4 355.1 480.6 399.4 C 433.5 443.2 368.8 480 288 480 C 207.2 480 142.5 443.2 95.42 399.4 C 48.62 355.1 17.34 304 2.461 268.3 C -0.8205 260.4 -0.8205 251.6 2.461 243.7 C 17.34 207.1 48.62 156 95.42 112.6 C 142.5 68.84 207.2 32 288 32 C 368.8 32 433.5 68.84 480.6 112.6 L 480.6 112.6 z M 288 112 C 208.5 112 144 176.5 144 256 C 144 335.5 208.5 400 288 400 C 367.5 400 432 335.5 432 256 C 432 176.5 367.5 112 288 112 z" stroke-linecap="round" />
</g>
</svg>