<?xml version="1.0" encoding="UTF-8" standalone="no" ?>
<!DOCTYPE svg PUBLIC "-//W3C//DTD SVG 1.1//EN" "http://www.w3.org/Graphics/SVG/1.1/DTD/svg11.dtd">
<svg xmlns="http://www.w3.org/2000/svg" xmlns:xlink="http://www.w3.org/1999/xlink" version="1.1" width="482.5818" height="512" viewBox="0 0 482.5818 512" xml:space="preserve">
<desc>Created with Fabric.js 4.6.0</desc>
<defs>
</defs>
<g transform="matrix(-1 0 0 1 241.29 256.87)" id="1UfTfeluYvncrCexLlyrh"  >
<path style="stroke: none; stroke-width: 1; stroke-dasharray: none; stroke-linecap: butt; stroke-dashoffset: 0; stroke-linejoin: miter; stroke-miterlimit: 4; fill: rgb(255,255,255); fill-rule: nonzero; opacity: 1;" vector-effect="non-scaling-stroke"  transform=" translate(-255.99, -256)" d="M 495.9 166.6 C 499.2 175.2 496.4 184.9 489.6 191.2 L 446.3 230.6 C 447.4 238.9 448 247.4 448 256 C 448 264.6 447.4 273.1 446.3 281.4 L 489.6 320.8 C 496.4 327.1 499.2 336.8 495.9 345.4 C 491.5 357.3 486.2 368.8 480.2 379.7 L 475.5 387.8 C 468.9 398.8 461.5 409.2 453.4 419.1 C 447.4 426.2 437.7 428.7 428.9 425.9 L 373.2 408.1 C 359.8 418.4 344.1 427 329.2 433.6 L 316.7 490.7 C 314.7 499.7 307.7 506.1 298.5 508.5 C 284.7 510.8 270.5 512 255.1 512 C 241.5 512 227.3 510.8 213.5 508.5 C 204.3 506.1 197.3 499.7 195.3 490.7 L 182.8 433.6 C 167 427 152.2 418.4 138.8 408.1 L 83.14 425.9 C 74.3 428.7 64.55 426.2 58.63 419.1 C 50.52 409.2 43.12 398.8 36.52 387.8 L 31.84 379.7 C 25.77 368.8 20.49 357.3 16.06 345.4 C 12.82 336.8 15.55 327.1 22.41 320.8 L 65.67 281.4 C 64.57 273.1 64 264.6 64 256 C 64 247.4 64.57 238.9 65.67 230.6 L 22.41 191.2 C 15.55 184.9 12.82 175.3 16.06 166.6 C 20.49 154.7 25.78 143.2 31.84 132.3 L 36.51 124.2 C 43.12 113.2 50.52 102.8 58.63 92.95 C 64.55 85.8 74.3 83.32 83.14 86.14 L 138.8 103.9 C 152.2 93.56 167 84.96 182.8 78.43 L 195.3 21.33 C 197.3 12.25 204.3 5.04 213.5 3.51 C 227.3 1.201 241.5 0 256 0 C 270.5 0 284.7 1.201 298.5 3.51 C 307.7 5.04 314.7 12.25 316.7 21.33 L 329.2 78.43 C 344.1 84.96 359.8 93.56 373.2 103.9 L 428.9 86.14 C 437.7 83.32 447.4 85.8 453.4 92.95 C 461.5 102.8 468.9 113.2 475.5 124.2 L 480.2 132.3 C 486.2 143.2 491.5 154.7 495.9 166.6 L 495.9 166.6 z M 256 336 C 300.2 336 336 300.2 336 255.1 C 336 211.8 300.2 175.1 256 175.1 C 211.8 175.1 176 211.8 176 255.1 C 176 300.2 211.8 336 256 336 z" stroke-linecap="round" />
</g>
</svg>