<?xml version="1.0" encoding="UTF-8" standalone="no" ?>
<!DOCTYPE svg PUBLIC "-//W3C//DTD SVG 1.1//EN" "http://www.w3.org/Graphics/SVG/1.1/DTD/svg11.dtd">
<svg xmlns="http://www.w3.org/2000/svg" xmlns:xlink="http://www.w3.org/1999/xlink" version="1.1" width="506.725" height="506.7451" viewBox="0 0 506.725 506.7451" xml:space="preserve">
<desc>Created with Fabric.js 4.6.0</desc>
<defs>
</defs>
<g transform="matrix(1 0 0 1 253.36 253.37)" id="_DHAkXqoVMPfXPt0YVcjF"  >
<path style="stroke: none; stroke-width: 1; stroke-dasharray: none; stroke-linecap: butt; stroke-dashoffset: 0; stroke-linejoin: miter; stroke-miterlimit: 4; fill: rgb(255,255,255); fill-rule: nonzero; opacity: 1;" vector-effect="non-scaling-stroke"  transform=" translate(-253.36, -258.63)" d="M 490.3 40.4 C 512.2 62.27 512.2 97.73 490.3 119.6 L 460.3 149.7 L 362.3 51.72 L 392.4 21.66 C 414.3 -0.2135 449.7 -0.2135 471.6 21.66 L 490.3 40.4 z M 172.4 241.7 L 339.7 74.34 L 437.7 172.3 L 270.3 339.6 C 264.2 345.8 256.7 350.4 248.4 353.2 L 159.6 382.8 C 150.1 385.6 141.5 383.4 135 376.1 C 128.6 370.5 126.4 361 129.2 352.4 L 158.8 263.6 C 161.6 255.3 166.2 247.8 172.4 241.7 L 172.4 241.7 z M 192 63.1 C 209.7 63.1 224 78.33 224 95.1 C 224 113.7 209.7 127.1 192 127.1 L 96 127.1 C 78.33 127.1 64 142.3 64 159.1 L 64 416 C 64 433.7 78.33 448 96 448 L 352 448 C 369.7 448 384 433.7 384 416 L 384 319.1 C 384 302.3 398.3 287.1 416 287.1 C 433.7 287.1 448 302.3 448 319.1 L 448 416 C 448 469 405 512 352 512 L 96 512 C 42.98 512 0 469 0 416 L 0 159.1 C 0 106.1 42.98 63.1 96 63.1 L 192 63.1 z" stroke-linecap="round" />
</g>
</svg>