<?xml version="1.0" encoding="UTF-8" standalone="no" ?>
<!DOCTYPE svg PUBLIC "-//W3C//DTD SVG 1.1//EN" "http://www.w3.org/Graphics/SVG/1.1/DTD/svg11.dtd">
<svg xmlns="http://www.w3.org/2000/svg" xmlns:xlink="http://www.w3.org/1999/xlink" version="1.1" width="320.025" height="320.025" viewBox="0 0 320.025 320.025" xml:space="preserve">
<desc>Created with Fabric.js 4.6.0</desc>
<defs>
</defs>
<g transform="matrix(1 0 0 1 160.01 160.01)" id="svJuTNrfr7KPrJ79S8zP-"  >
<path style="stroke: none; stroke-width: 1; stroke-dasharray: none; stroke-linecap: butt; stroke-dashoffset: 0; stroke-linejoin: miter; stroke-miterlimit: 4; fill: rgb(0,0,0); fill-rule: nonzero; opacity: 1;" vector-effect="non-scaling-stroke"  transform=" translate(-160.01, -255.99)" d="M 310.6 361.4 C 323.1 373.9 323.1 394.15 310.6 406.65 C 304.4 412.9 296.2 416 288 416 C 279.8 416 271.62 412.875 265.38 406.625 L 160 301.3 L 54.63 406.6 C 48.38 412.9 40.19 416 32 416 C 23.810000000000002 416 15.63 412.9 9.375 406.6 C -3.125 394.1 -3.125 373.85 9.375 361.35 L 114.775 255.95000000000002 L 9.375 150.6 C -3.125 138.1 -3.125 117.85 9.375 105.35 C 21.875 92.85 42.125 92.85 54.625 105.35 L 160 210.8 L 265.4 105.4 C 277.9 92.9 298.15 92.9 310.65 105.4 C 323.15 117.9 323.15 138.15 310.65 150.65 L 205.24999999999997 256.05 L 310.6 361.4 z" stroke-linecap="round" />
</g>
</svg>